# xmcd
# 
# Track frame offsets:
#     182
#     30675
#     51105
#     70782
#     84765
#     107512
#     119947
#     141460
#     162040
#     187837
#     210517
#     230152
#     244140
# 
# Disc length: 3399
# 
# Revision: 2
# Processed by: cddbd v1.5.2PL0 Copyright (c) Steve Scherf et al.
# Submitted via: fre:ac v1.1beta1pre4
# 
DISCID=b10d450d
DTITLE=Kult - Tata Kazika
DYEAR=1993
DGENRE=Folklore
TTITLE0=Celina
TTITLE1=Dziewczyna Sie Bala Pogrzebow
TTITLE2=Baranek
TTITLE3=Notoryczna Narzeczona
TTITLE4=Krolowa Zycia
TTITLE5=Inzynierowie Z Petrobudowy
TTITLE6=Knajpa Mordercow
TTITLE7=W Czarnej Urnie
TTITLE8=Wroci Wiosna Baronowo
TTITLE9=Marianna
TTITLE10=Kurwy Wedrowniczki
TTITLE11=Bal Kreslarzy
TTITLE12=Dyplomata
EXTD=
EXTT0=
EXTT1=
EXTT2=
EXTT3=
EXTT4=
EXTT5=
EXTT6=
EXTT7=
EXTT8=
EXTT9=
EXTT10=
EXTT11=
EXTT12=
PLAYORDER=
